<?xml version="1.0" encoding="UTF-8" standalone="no"?>
<!-- Created with Inkscape (http://www.inkscape.org/) -->

<svg
   xmlns:dc="http://purl.org/dc/elements/1.1/"
   xmlns:cc="http://creativecommons.org/ns#"
   xmlns:rdf="http://www.w3.org/1999/02/22-rdf-syntax-ns#"
   xmlns:svg="http://www.w3.org/2000/svg"
   xmlns="http://www.w3.org/2000/svg"
   xmlns:sodipodi="http://sodipodi.sourceforge.net/DTD/sodipodi-0.dtd"
   xmlns:inkscape="http://www.inkscape.org/namespaces/inkscape"
   width="53.04081mm"
   height="51.087955mm"
   viewBox="0 0 53.04081 51.087955"
   version="1.1"
   id="svg6619"
   sodipodi:docname="sprocket_for_cad.svg"
   inkscape:version="0.92.1 r15371">
  <defs
     id="defs6613" />
  <sodipodi:namedview
     id="base"
     pagecolor="#ffffff"
     bordercolor="#666666"
     borderopacity="1.0"
     inkscape:pageopacity="0.0"
     inkscape:pageshadow="2"
     inkscape:zoom="2.7293207"
     inkscape:cx="79.533781"
     inkscape:cy="119.13063"
     inkscape:document-units="mm"
     inkscape:current-layer="g6611"
     showgrid="false"
     fit-margin-top="1"
     fit-margin-left="1"
     fit-margin-right="1"
     fit-margin-bottom="1"
     inkscape:window-width="1366"
     inkscape:window-height="709"
     inkscape:window-x="1280"
     inkscape:window-y="531"
     inkscape:window-maximized="1" />
  <metadata
     id="metadata6616">
    <rdf:RDF>
      <cc:Work
         rdf:about="">
        <dc:format>image/svg+xml</dc:format>
        <dc:type
           rdf:resource="http://purl.org/dc/dcmitype/StillImage" />
        <dc:title></dc:title>
      </cc:Work>
    </rdf:RDF>
  </metadata>
  <g
     inkscape:label="Layer 1"
     inkscape:groupmode="layer"
     id="layer1"
     transform="translate(-73.479691,-71.786255)">
    <g
       id="g6611">
      <path
         transform="scale(0.26458333)"
         d="m 304.08203,275.09766 c -13.33785,0 -18.36618,8.80609 -20.29883,12.83593 -2.16057,4.50509 -2.28515,6.51651 -2.28515,10.07422 v 33.9043 c 0,0.0197 0.57398,3.62335 1.29883,6.30273 0.70229,2.59606 1.36313,4.61216 1.40624,4.74414 l 26.00977,65.18946 a 7.9274246,7.9274246 0 0 1 0.28906,0.86328 c 3.98214,14.68404 12.90907,27.97924 24.99219,37.22461 12.08312,9.24537 27.25042,14.38646 42.46484,14.39062 15.1321,-0.0184 30.21432,-5.11511 42.25586,-14.27929 12.04414,-9.16615 20.97465,-22.34981 25.02344,-36.9336 a 7.9274246,7.9274246 0 0 1 0.27734,-0.8164 l 26.19336,-65.64258 c 0.0435,-0.13357 0.70374,-2.14841 1.4043,-4.74414 0.72332,-2.68005 1.29492,-6.28635 1.29492,-6.29883 v -33.90625 c 0,-3.55559 -0.11906,-5.55971 -2.27929,-10.06836 -1.91681,-4.00067 -7.01455,-12.83984 -20.30469,-12.83984 h -73.56836 -0.60547 z"
         id="path2742"
         style="opacity:1;vector-effect:none;fill:#f38a8a;fill-opacity:0.42635701;fill-rule:evenodd;stroke:none;stroke-width:0.47930187;stroke-linecap:butt;stroke-linejoin:miter;stroke-miterlimit:4;stroke-dasharray:none;stroke-dashoffset:28.06299019;stroke-opacity:1"
         inkscape:original="M 304.08203 267.17188 C 287.0737 267.17188 279.28415 278.98561 276.63672 284.50586 C 273.98929 290.02611 273.57227 293.91205 273.57227 298.00781 L 273.57227 331.91211 C 273.57227 336.00825 276.7168 345.58398 276.7168 345.58398 L 302.85156 411.08594 A 77.840276 77.840276 0 0 0 377.95703 468.55273 A 77.840276 77.840276 0 0 0 452.87695 411.53516 L 479.19727 345.57617 C 479.19727 345.57617 482.33398 335.99594 482.33398 331.91211 L 482.33398 298.00586 C 482.33398 293.92166 481.92543 290.03859 479.27734 284.51172 C 476.62929 278.98484 468.79313 267.17188 451.82422 267.17188 L 378.25586 267.17188 L 377.65039 267.17188 L 304.08203 267.17188 z "
         inkscape:radius="-7.9266319"
         sodipodi:type="inkscape:offset" />
      <path
         inkscape:connector-curvature="0"
         transform="scale(0.26458333)"
         style="fill:#262626;stroke-width:0.07127785"
         d="m 377.95312,343.44531 a 6.9474901,6.9474901 0 0 0 -6.89453,6.16407 6.662455,6.662455 0 0 1 1.28321,2.27343 6.662455,6.662455 0 0 1 0.25976,2.92774 6.9474901,6.9474901 0 0 0 0.0156,0.0195 c -0.01,0.0212 -0.0179,0.0432 -0.0274,0.0644 a 6.662455,6.662455 0 0 1 -4.52539,5.38281 6.662455,6.662455 0 0 1 -0.42968,0.11524 c -0.91996,0.25942 -1.89974,0.28766 -2.84571,0.18554 -0.54504,-0.0412 -1.00603,-0.36268 -1.52539,-0.5039 -0.52718,-0.22451 -1.00598,-0.52782 -1.41992,-0.92969 -0.26721,-0.11655 -0.46836,-0.31481 -0.66406,-0.52148 a 6.9474901,6.9474901 0 0 0 0.002,-0.0937 6.662455,6.662455 0 0 1 -1.51367,-2.5293 6.662455,6.662455 0 0 1 -0.30078,-2.60352 6.9474901,6.9474901 0 0 0 -9.19727,-0.92187 6.9474901,6.9474901 0 0 0 -1.95703,9.03711 6.6624551,6.6624551 0 0 1 2.375,1.08594 6.6624551,6.6624551 0 0 1 1.47461,9.30664 6.6624551,6.6624551 0 0 1 -0.14453,0.17968 c -0.0818,0.11263 -0.17177,0.21822 -0.26172,0.32422 a 6.6624551,6.6624551 0 0 1 -0.0742,0.0781 c -0.63575,0.72155 -1.43699,1.29979 -2.2832,1.74805 -0.76057,0.17112 -1.50416,0.45805 -2.29492,0.45312 -0.49651,-0.0395 -0.99023,0.002 -1.48047,-0.0703 a 6.9474901,6.9474901 0 0 0 -0.0566,-0.082 6.6624551,6.6624551 0 0 1 -2.71094,-1.15625 6.6624551,6.6624551 0 0 1 -1.77344,-1.92969 6.9474901,6.9474901 0 0 0 -7.98242,4.66016 6.9474901,6.9474901 0 0 0 3.73242,8.46093 6.6624552,6.6624552 0 0 1 2.55664,-0.51562 6.6624552,6.6624552 0 0 1 2.86719,0.6582 6.9474901,6.9474901 0 0 0 0.0273,-0.01 c 0.0195,0.0176 0.041,0.0333 0.0606,0.0508 a 6.6624552,6.6624552 0 0 1 3.70703,5.96289 6.6624552,6.6624552 0 0 1 -0.01,0.18554 c 5.3e-4,0.38132 -0.0541,0.75959 -0.12305,1.13672 a 6.6624552,6.6624552 0 0 1 0,0.002 v 0.002 c -0.10485,0.57144 -0.26102,1.13551 -0.48633,1.66601 -0.19706,0.55919 -0.64916,0.94318 -0.97656,1.41993 -0.38394,0.4459 -0.81549,0.84406 -1.34375,1.11914 -0.21264,0.23191 -0.48578,0.37072 -0.76172,0.5039 a 6.9474901,6.9474901 0 0 0 -0.0879,-0.0312 6.6624552,6.6624552 0 0 1 -2.87305,0.65821 6.6624552,6.6624552 0 0 1 -2.56836,-0.51563 6.9474901,6.9474901 0 0 0 -3.7207,8.46094 6.9474901,6.9474901 0 0 0 7.99219,4.6543 6.6624553,6.6624553 0 0 1 1.76562,-1.92383 6.6624553,6.6624553 0 0 1 2.70899,-1.15235 6.9474901,6.9474901 0 0 0 0.002,-0.004 c 0.003,1.1e-4 0.007,-1.2e-4 0.01,0 a 6.6624553,6.6624553 0 0 1 6.58593,2.63086 6.6624553,6.6624553 0 0 1 0.14258,0.21875 c 0.40832,0.56157 0.72397,1.19062 0.9082,1.86328 0.18656,0.53949 0.35799,1.12787 0.27344,1.69922 -0.003,0.78126 -0.0652,1.57885 -0.39062,2.30078 -0.0623,0.35104 -0.22289,0.66355 -0.38282,0.97656 a 6.9474901,6.9474901 0 0 0 -0.0879,0.0254 6.6624553,6.6624553 0 0 1 -1.9375,2.22266 6.6624553,6.6624553 0 0 1 -2.3789,1.08984 6.9474901,6.9474901 0 0 0 1.96289,9.03125 6.9474901,6.9474901 0 0 0 9.19922,-0.93555 6.6624554,6.6624554 0 0 1 0.29883,-2.58984 6.6624554,6.6624554 0 0 1 1.51367,-2.52539 6.9474901,6.9474901 0 0 0 0,-0.006 c 0.005,-0.003 0.0105,-0.006 0.0156,-0.01 a 6.6624554,6.6624554 0 0 1 6.86719,-1.73632 6.6624554,6.6624554 0 0 1 0.11914,0.0449 c 0.0535,0.0158 0.10319,0.0431 0.15625,0.0605 a 6.6624554,6.6624554 0 0 1 0.375,0.14648 c 0.10346,0.0427 0.21159,0.0717 0.3125,0.12109 0.77319,0.3933 1.50018,0.90222 2.0918,1.53907 0.29677,0.45758 0.64565,0.90356 0.88281,1.40234 0.32579,0.53087 0.37137,1.16869 0.61719,1.72852 0.007,0.11462 0.0278,0.22606 0.0449,0.33789 a 6.9474901,6.9474901 0 0 0 -0.0606,0.0781 6.6624554,6.6624554 0 0 1 -0.26172,2.93555 6.6624554,6.6624554 0 0 1 -1.28515,2.2832 6.9474901,6.9474901 0 0 0 6.89843,6.15235 6.9474901,6.9474901 0 0 0 6.89454,-6.16211 6.6624555,6.6624555 0 0 1 -1.28321,-2.27344 6.6624555,6.6624555 0 0 1 -0.25976,-2.92969 6.9474901,6.9474901 0 0 0 -0.0156,-0.0195 c 0.01,-0.0212 0.0179,-0.0432 0.0274,-0.0644 a 6.6624555,6.6624555 0 0 1 4.52539,-5.38282 6.6624555,6.6624555 0 0 1 0.37695,-0.10156 c 0.93576,-0.27447 1.93545,-0.30921 2.90039,-0.20508 0.54505,0.0438 1.00597,0.36409 1.52539,0.50586 0.52721,0.22488 1.00591,0.52616 1.41992,0.92774 0.26675,0.11622 0.46679,0.31719 0.66211,0.52343 a 6.9474901,6.9474901 0 0 0 -0.002,0.0996 6.6624555,6.6624555 0 0 1 1.51367,2.52735 6.6624555,6.6624555 0 0 1 0.30078,2.60351 6.9474901,6.9474901 0 0 0 9.19727,0.92188 6.9474901,6.9474901 0 0 0 1.95508,-9.03906 6.6624556,6.6624556 0 0 1 -2.37305,-1.08399 6.6624556,6.6624556 0 0 1 -1.9336,-2.21875 6.9474901,6.9474901 0 0 0 -0.008,-0.002 c -0.003,-0.01 -0.006,-0.0196 -0.01,-0.0293 a 6.6624556,6.6624556 0 0 1 0.47656,-7.05664 6.6624556,6.6624556 0 0 1 0.14844,-0.18555 c 0.081,-0.11139 0.1708,-0.21534 0.25976,-0.32031 a 6.6624556,6.6624556 0 0 1 0.0625,-0.0644 c 0.63726,-0.7289 1.44258,-1.31348 2.29492,-1.76367 0.76052,-0.17122 1.50398,-0.45933 2.29493,-0.45313 0.49455,0.0392 0.98818,-5.7e-4 1.47656,0.0703 a 6.9474901,6.9474901 0 0 0 0.0586,0.0859 6.6624556,6.6624556 0 0 1 2.71094,1.15625 6.6624556,6.6624556 0 0 1 1.77344,1.92969 6.9474901,6.9474901 0 0 0 7.98242,-4.66016 6.9474901,6.9474901 0 0 0 -4.46094,-8.7539 6.9474901,6.9474901 0 0 0 -4.71679,0.1582 c -0.78728,-0.71275 -1.6808,-1.32368 -2.3418,-2.16602 -0.53579,-0.75401 -0.91545,-1.61629 -1.19336,-2.49609 -0.45392,-1.43369 -0.19428,-2.98776 0.38281,-4.3457 0.19767,-0.55918 0.64918,-0.94323 0.97656,-1.41992 0.3837,-0.44591 0.81556,-0.84403 1.34375,-1.11915 0.21166,-0.23076 0.48321,-0.36948 0.75782,-0.50195 a 6.9474901,6.9474901 0 0 0 4.79101,0.1836 6.9474901,6.9474901 0 0 0 4.45899,-8.75391 6.9474901,6.9474901 0 0 0 -7.99219,-4.65235 6.6624548,6.6624548 0 0 1 -1.76367,1.92188 6.6624548,6.6624548 0 0 1 -9.30664,-1.47461 6.6624548,6.6624548 0 0 1 -0.21485,-0.32617 c -0.37282,-0.53562 -0.66287,-1.12968 -0.83593,-1.76172 -0.18634,-0.53925 -0.35577,-1.12612 -0.27149,-1.69727 0.003,-0.78127 0.0648,-1.58077 0.39063,-2.30273 0.0618,-0.34869 0.22027,-0.65979 0.3789,-0.9707 a 6.9474901,6.9474901 0 0 0 0.0899,-0.0273 6.6624548,6.6624548 0 0 1 1.9375,-2.21875 6.6624548,6.6624548 0 0 1 2.3789,-1.09179 6.9474901,6.9474901 0 0 0 -1.96289,-9.03125 6.9474901,6.9474901 0 0 0 -9.20117,0.93164 6.6624549,6.6624549 0 0 1 -0.29883,2.59375 6.6624549,6.6624549 0 0 1 -1.51172,2.52539 6.9474901,6.9474901 0 0 0 0,0.002 c -0.002,0.001 -0.004,0.003 -0.006,0.004 a 6.6624549,6.6624549 0 0 1 -6.87695,1.74609 A 6.6624549,6.6624549 0 0 1 387.14648,360 c -0.0876,-0.0374 -0.17985,-0.0611 -0.26562,-0.10352 -0.77322,-0.39273 -1.4964,-0.9022 -2.08789,-1.53906 -0.29707,-0.45777 -0.64741,-0.90366 -0.88477,-1.40234 -0.32617,-0.53575 -0.37443,-1.17611 -0.61718,-1.74219 -0.007,-0.1094 -0.0269,-0.2154 -0.043,-0.32227 a 6.9474901,6.9474901 0 0 0 0.0566,-0.0742 6.6624549,6.6624549 0 0 1 0.26172,-2.93555 6.6624549,6.6624549 0 0 1 1.2832,-2.28125 6.9474901,6.9474901 0 0 0 -6.89649,-6.1543 z"
         id="path1908" />
      <circle
         style="display:inline;opacity:1;vector-effect:none;fill:#f38a8a;fill-opacity:1;fill-rule:evenodd;stroke:#fface3;stroke-width:0.09965908;stroke-linecap:butt;stroke-linejoin:miter;stroke-miterlimit:4;stroke-dasharray:none;stroke-dashoffset:28.06299019;stroke-opacity:1"
         id="circle6754"
         cx="100.00108"
         cy="103.37613"
         r="3.9962249" />
      <path
         style="opacity:1;vector-effect:none;fill:#ba8af3;fill-opacity:1;fill-rule:evenodd;stroke:none;stroke-width:0.205;stroke-linecap:butt;stroke-linejoin:miter;stroke-miterlimit:4;stroke-dasharray:none;stroke-dashoffset:28.06299019;stroke-opacity:1"
         d="m 80.370728,78.682518 h 39.240662 v 9.294773 H 80.370728 Z"
         id="rect6841" />
    </g>
  </g>
</svg>
